<svg width="430" height="932" viewBox="0 0 430 932" fill="none" xmlns="http://www.w3.org/2000/svg">
  <!-- Status Bar -->
  <rect width="430" height="44" fill="url(#statusGradient)"/>
  <text x="20" y="29" font-family="system-ui" font-size="14" font-weight="500" fill="white">9:41</text>
  <text x="370" y="29" font-family="system-ui" font-size="14" font-weight="500" fill="white">5G 🔋</text>

  <!-- Hero Section -->
  <rect y="44" width="430" height="260" fill="url(#heroGradient)"/>
  <text x="24" y="85" font-size="20" fill="white">←</text>
  <text x="390" y="85" font-size="20" fill="white">♡</text>

  <!-- Expert Avatar -->
  <rect x="165" y="90" width="100" height="100" rx="20" fill="rgba(255,255,255,0.2)" stroke="rgba(255,255,255,0.3)" stroke-width="3"/>
  <text x="215" y="155" font-size="48" text-anchor="middle">💄</text>

  <!-- Expert Info -->
  <text x="215" y="220" font-family="system-ui" font-size="24" font-weight="800" fill="white" text-anchor="middle">キム・ミンジ</text>
  <text x="215" y="244" font-family="system-ui" font-size="16" fill="white" text-anchor="middle" opacity="0.9">メイクアップアーティスト</text>
  <text x="215" y="268" font-family="system-ui" font-size="14" fill="white" text-anchor="middle">★ 4.9 • 234件のレビュー • 明洞</text>

  <!-- Language Tags -->
  <g id="language-tags">
    <rect x="135" y="278" width="70" height="28" rx="8" fill="rgba(255,255,255,0.2)"/>
    <text x="170" y="298" font-family="system-ui" font-size="12" font-weight="600" fill="white" text-anchor="middle">日本語OK</text>

    <rect x="213" y="278" width="50" height="28" rx="8" fill="rgba(255,255,255,0.2)"/>
    <text x="238" y="298" font-family="system-ui" font-size="12" font-weight="600" fill="white" text-anchor="middle">韓国語</text>

    <rect x="271" y="278" width="50" height="28" rx="8" fill="rgba(255,255,255,0.2)"/>
    <text x="296" y="298" font-family="system-ui" font-size="12" font-weight="600" fill="white" text-anchor="middle">英語</text>
  </g>

  <!-- Content Area -->
  <rect y="304" width="430" height="628" fill="#FAFAF9"/>

  <!-- Introduction Card -->
  <rect x="20" y="324" width="390" height="100" rx="16" fill="white" stroke="#E7E5E4"/>
  <text x="36" y="348" font-size="16">✨</text>
  <text x="60" y="348" font-family="system-ui" font-size="16" font-weight="700" fill="#1C1917">自己紹介</text>
  <text x="36" y="372" font-family="system-ui" font-size="14" fill="#78716C">K-ビューティーのトレンドを取り入れた、</text>
  <text x="36" y="390" font-family="system-ui" font-size="14" fill="#78716C">自然で上品なメイクを得意としています。</text>
  <text x="36" y="408" font-family="system-ui" font-size="14" fill="#78716C">日本のお客様も多数対応しております。</text>

  <!-- Portfolio Card -->
  <rect x="20" y="440" width="390" height="156" rx="16" fill="white" stroke="#E7E5E4"/>
  <text x="36" y="464" font-size="16">📸</text>
  <text x="60" y="464" font-family="system-ui" font-size="16" font-weight="700" fill="#1C1917">ポートフォリオ</text>

  <!-- Portfolio Grid -->
  <g id="portfolio">
    <rect x="36" y="476" width="115" height="115" rx="12" fill="url(#avatarGradient)" stroke="#E7E5E4"/>
    <text x="93" y="543" font-size="32" text-anchor="middle">💄</text>

    <rect x="157" y="476" width="115" height="115" rx="12" fill="url(#avatarGradient)" stroke="#E7E5E4"/>
    <text x="214" y="543" font-size="32" text-anchor="middle">✨</text>

    <rect x="278" y="476" width="115" height="115" rx="12" fill="url(#avatarGradient)" stroke="#E7E5E4"/>
    <text x="335" y="543" font-size="32" text-anchor="middle">💋</text>
  </g>

  <!-- Menu Card -->
  <rect x="20" y="612" width="390" height="136" rx="16" fill="white" stroke="#E7E5E4"/>
  <text x="36" y="636" font-size="16">💰</text>
  <text x="60" y="636" font-family="system-ui" font-size="16" font-weight="700" fill="#1C1917">メニュー・料金</text>

  <text x="36" y="664" font-family="system-ui" font-size="14" font-weight="600" fill="#1C1917">ナチュラルメイク</text>
  <text x="36" y="680" font-family="system-ui" font-size="12" fill="#78716C">60分</text>
  <text x="360" y="672" font-family="system-ui" font-size="16" font-weight="800" fill="#8B5CF6" text-anchor="end">¥8,000</text>

  <line x1="36" y1="692" x2="394" y2="692" stroke="#E7E5E4"/>

  <text x="36" y="716" font-family="system-ui" font-size="14" font-weight="600" fill="#1C1917">フルメイク（ヘアセット込み）</text>
  <text x="36" y="732" font-family="system-ui" font-size="12" fill="#78716C">90分</text>
  <text x="360" y="724" font-family="system-ui" font-size="16" font-weight="800" fill="#8B5CF6" text-anchor="end">¥15,000</text>

  <!-- Action Buttons -->
  <rect x="20" y="780" width="185" height="52" rx="12" fill="white" stroke="#8B5CF6" stroke-width="2"/>
  <text x="112" y="812" font-family="system-ui" font-size="16" font-weight="700" fill="#8B5CF6" text-anchor="middle">相談する</text>

  <rect x="217" y="780" width="193" height="52" rx="12" fill="#8B5CF6"/>
  <text x="313" y="812" font-family="system-ui" font-size="16" font-weight="700" fill="white" text-anchor="middle">予約する</text>

  <defs>
    <linearGradient id="statusGradient" x1="0" y1="0" x2="430" y2="0">
      <stop offset="0%" stop-color="#8B5CF6"/>
      <stop offset="100%" stop-color="#7C3AED"/>
    </linearGradient>
    <linearGradient id="heroGradient" x1="0" y1="44" x2="430" y2="304">
      <stop offset="0%" stop-color="#8B5CF6"/>
      <stop offset="100%" stop-color="#7C3AED"/>
    </linearGradient>
    <linearGradient id="avatarGradient" x1="0" y1="0" x2="115" y2="115">
      <stop offset="0%" stop-color="#FAF5FF"/>
      <stop offset="100%" stop-color="#F3E8FF"/>
    </linearGradient>
  </defs>
</svg>
