<svg width="430" height="932" viewBox="0 0 430 932" fill="none" xmlns="http://www.w3.org/2000/svg">
  <!-- Status Bar -->
  <rect width="430" height="44" fill="url(#statusGradient)"/>
  <text x="20" y="29" font-family="system-ui" font-size="14" font-weight="500" fill="white">9:41</text>
  <text x="370" y="29" font-family="system-ui" font-size="14" font-weight="500" fill="white">5G 🔋</text>

  <!-- Navigation Bar -->
  <rect y="44" width="430" height="64" fill="white" opacity="0.95"/>
  <line x1="0" y1="108" x2="430" y2="108" stroke="#E7E5E4"/>
  <text x="20" y="85" font-family="system-ui" font-size="20" font-weight="700" fill="#1C1917">マイページ</text>
  <text x="390" y="85" font-size="20">⚙️</text>

  <!-- Content -->
  <rect y="108" width="430" height="824" fill="#FAFAF9"/>

  <!-- User Profile Card -->
  <rect x="20" y="128" width="390" height="140" rx="16" fill="white" stroke="#E7E5E4"/>
  <circle cx="215" cy="168" r="40" fill="url(#avatarGradient)" stroke="#E7E5E4" stroke-width="3"/>
  <text x="215" y="180" font-size="40" text-anchor="middle">👤</text>
  <text x="215" y="238" font-family="system-ui" font-size="20" font-weight="700" fill="#1C1917" text-anchor="middle">ゆりか</text>
  <text x="215" y="258" font-family="system-ui" font-size="14" fill="#78716C" text-anchor="middle">yurika@example.com</text>

  <!-- Account Menu Card -->
  <rect x="20" y="288" width="390" height="196" rx="16" fill="white" stroke="#E7E5E4"/>

  <g id="menu-1">
    <text x="36" y="322" font-size="20">📅</text>
    <text x="68" y="322" font-family="system-ui" font-size="14" font-weight="600" fill="#1C1917">予約履歴</text>
    <text x="388" y="322" font-family="system-ui" font-size="14" fill="#78716C" text-anchor="end">→</text>
    <line x1="36" y1="336" x2="394" y2="336" stroke="#E7E5E4"/>
  </g>

  <g id="menu-2">
    <text x="36" y="370" font-size="20">♡</text>
    <text x="68" y="370" font-family="system-ui" font-size="14" font-weight="600" fill="#1C1917">お気に入り</text>
    <text x="388" y="370" font-family="system-ui" font-size="14" fill="#78716C" text-anchor="end">→</text>
    <line x1="36" y1="384" x2="394" y2="384" stroke="#E7E5E4"/>
  </g>

  <g id="menu-3">
    <text x="36" y="418" font-size="20">💳</text>
    <text x="68" y="418" font-family="system-ui" font-size="14" font-weight="600" fill="#1C1917">お支払い方法</text>
    <text x="388" y="418" font-family="system-ui" font-size="14" fill="#78716C" text-anchor="end">→</text>
    <line x1="36" y1="432" x2="394" y2="432" stroke="#E7E5E4"/>
  </g>

  <g id="menu-4">
    <text x="36" y="466" font-size="20">🌐</text>
    <text x="68" y="466" font-family="system-ui" font-size="14" font-weight="600" fill="#1C1917">言語設定</text>
    <text x="334" y="466" font-family="system-ui" font-size="13" fill="#78716C" text-anchor="end">日本語</text>
    <text x="388" y="466" font-family="system-ui" font-size="14" fill="#78716C" text-anchor="end">→</text>
  </g>

  <!-- Support Menu Card -->
  <rect x="20" y="504" width="390" height="148" rx="16" fill="white" stroke="#E7E5E4"/>

  <g id="support-1">
    <text x="36" y="538" font-size="20">💬</text>
    <text x="68" y="538" font-family="system-ui" font-size="14" font-weight="600" fill="#1C1917">カスタマーサポート</text>
    <text x="388" y="538" font-family="system-ui" font-size="14" fill="#78716C" text-anchor="end">→</text>
    <line x1="36" y1="552" x2="394" y2="552" stroke="#E7E5E4"/>
  </g>

  <g id="support-2">
    <text x="36" y="586" font-size="20">❓</text>
    <text x="68" y="586" font-family="system-ui" font-size="14" font-weight="600" fill="#1C1917">よくある質問</text>
    <text x="388" y="586" font-family="system-ui" font-size="14" fill="#78716C" text-anchor="end">→</text>
    <line x1="36" y1="600" x2="394" y2="600" stroke="#E7E5E4"/>
  </g>

  <g id="support-3">
    <text x="36" y="634" font-size="20">📋</text>
    <text x="68" y="634" font-family="system-ui" font-size="14" font-weight="600" fill="#1C1917">利用規約</text>
    <text x="388" y="634" font-family="system-ui" font-size="14" fill="#78716C" text-anchor="end">→</text>
  </g>

  <!-- Japanese Support Banner -->
  <rect x="20" y="672" width="390" height="68" rx="12" fill="#FEF3C7" stroke="#FCD34D"/>
  <text x="52" y="703" font-size="28">🇯🇵</text>
  <text x="88" y="699" font-family="system-ui" font-size="14" font-weight="700" fill="#92400E">日本語サポート</text>
  <text x="88" y="719" font-family="system-ui" font-size="12" fill="#B45309">24時間チャットサポート対応中</text>

  <!-- Logout Button -->
  <rect x="20" y="760" width="390" height="52" rx="12" fill="white" stroke="#8B5CF6" stroke-width="2"/>
  <text x="215" y="792" font-family="system-ui" font-size="16" font-weight="700" fill="#8B5CF6" text-anchor="middle">ログアウト</text>

  <!-- Bottom Navigation -->
  <rect y="868" width="430" height="64" fill="white"/>
  <line x1="0" y1="868" x2="430" y2="868" stroke="#E7E5E4"/>

  <g id="nav-home">
    <text x="43" y="892" font-size="22" text-anchor="middle">🏠</text>
    <text x="43" y="918" font-family="system-ui" font-size="11" font-weight="600" fill="#78716C" text-anchor="middle">ホーム</text>
  </g>

  <g id="nav-search">
    <text x="129" y="892" font-size="22" text-anchor="middle">🔍</text>
    <text x="129" y="918" font-family="system-ui" font-size="11" font-weight="600" fill="#78716C" text-anchor="middle">探す</text>
  </g>

  <g id="nav-bookings">
    <text x="215" y="892" font-size="22" text-anchor="middle">📅</text>
    <text x="215" y="918" font-family="system-ui" font-size="11" font-weight="600" fill="#78716C" text-anchor="middle">予約</text>
  </g>

  <g id="nav-chat">
    <text x="301" y="892" font-size="22" text-anchor="middle">💬</text>
    <text x="301" y="918" font-family="system-ui" font-size="11" font-weight="600" fill="#78716C" text-anchor="middle">チャット</text>
  </g>

  <g id="nav-profile">
    <text x="387" y="892" font-size="22" text-anchor="middle">👤</text>
    <text x="387" y="918" font-family="system-ui" font-size="11" font-weight="600" fill="#8B5CF6" text-anchor="middle">マイページ</text>
  </g>

  <defs>
    <linearGradient id="statusGradient" x1="0" y1="0" x2="430" y2="0">
      <stop offset="0%" stop-color="#8B5CF6"/>
      <stop offset="100%" stop-color="#7C3AED"/>
    </linearGradient>
    <linearGradient id="avatarGradient" x1="175" y1="128" x2="255" y2="208">
      <stop offset="0%" stop-color="#FAF5FF"/>
      <stop offset="100%" stop-color="#F3E8FF"/>
    </linearGradient>
  </defs>
</svg>
